<svg width="163" height="42" viewBox="0 0 163 42" fill="none" xmlns="http://www.w3.org/2000/svg">
<path d="M43.5542 8.61095H38.7214V3.77935C38.7213 3.68323 38.6831 3.59106 38.6152 3.52308C38.5473 3.4551 38.4551 3.41685 38.359 3.41675H34.974C34.8779 3.4168 34.7857 3.45503 34.7177 3.52302C34.6498 3.59102 34.6116 3.68322 34.6116 3.77935L34.6114 8.61135L29.7796 8.61115C29.5874 8.61115 29.4172 8.78135 29.417 8.97375V12.3587C29.4169 12.4064 29.4263 12.4535 29.4445 12.4975C29.4627 12.5415 29.4894 12.5815 29.5231 12.6152C29.5568 12.6489 29.5968 12.6755 29.6408 12.6937C29.6848 12.7119 29.732 12.7212 29.7796 12.7211H34.6116V17.5541C34.6116 17.6503 34.6499 17.7425 34.7179 17.8105C34.7858 17.8785 34.878 17.9167 34.9742 17.9167H38.3588C38.4064 17.9167 38.4536 17.9074 38.4976 17.8891C38.5415 17.8709 38.5815 17.8442 38.6152 17.8105C38.6489 17.7769 38.6756 17.7369 38.6938 17.6929C38.712 17.6489 38.7214 17.6018 38.7214 17.5541V12.7213L43.554 12.7211C43.6016 12.7212 43.6488 12.7119 43.6928 12.6937C43.7369 12.6755 43.7769 12.6488 43.8106 12.6151C43.8443 12.5814 43.871 12.5414 43.8892 12.4974C43.9073 12.4534 43.9167 12.4062 43.9166 12.3585L43.9168 8.97355C43.9168 8.87738 43.8786 8.78515 43.8106 8.71715C43.7426 8.64915 43.6504 8.61095 43.5542 8.61095Z" fill="url(#paint0_linear_10_40)"/>
<mask id="path-2-outside-1_10_40" maskUnits="userSpaceOnUse" x="0.333496" y="7.00012" width="26" height="28" fill="black">
<rect fill="white" x="0.333496" y="7.00012" width="26" height="28"/>
<path d="M24.8455 29.1441C24.8455 30.5308 24.4082 31.6508 23.5335 32.5041C22.6802 33.3788 21.5602 33.8161 20.1735 33.8161H6.7975C5.41083 33.8161 4.28016 33.3788 3.4055 32.5041C2.55216 31.6508 2.1255 30.5308 2.1255 29.1441V8.12012H8.5255V28.0561H18.4455V8.12012H24.8455V29.1441Z"/>
</mask>
<path d="M24.8455 29.1441C24.8455 30.5308 24.4082 31.6508 23.5335 32.5041C22.6802 33.3788 21.5602 33.8161 20.1735 33.8161H6.7975C5.41083 33.8161 4.28016 33.3788 3.4055 32.5041C2.55216 31.6508 2.1255 30.5308 2.1255 29.1441V8.12012H8.5255V28.0561H18.4455V8.12012H24.8455V29.1441Z" fill="url(#paint1_linear_10_40)"/>
<path d="M23.5335 32.5041L22.8352 31.7883L22.8263 31.797L22.8177 31.8058L23.5335 32.5041ZM3.4055 32.5041L2.69839 33.2112L2.69839 33.2112L3.4055 32.5041ZM2.1255 8.12012V7.12012H1.1255V8.12012H2.1255ZM8.5255 8.12012H9.5255V7.12012H8.5255V8.12012ZM8.5255 28.0561H7.5255V29.0561H8.5255V28.0561ZM18.4455 28.0561V29.0561H19.4455V28.0561H18.4455ZM18.4455 8.12012V7.12012H17.4455V8.12012H18.4455ZM24.8455 8.12012H25.8455V7.12012H24.8455V8.12012ZM23.8455 29.1441C23.8455 30.301 23.4903 31.1492 22.8352 31.7883L24.2318 33.2199C25.3261 32.1523 25.8455 30.7606 25.8455 29.1441H23.8455ZM22.8177 31.8058C22.1786 32.4609 21.3304 32.8161 20.1735 32.8161V34.8161C21.79 34.8161 23.1817 34.2967 24.2493 33.2024L22.8177 31.8058ZM20.1735 32.8161H6.7975V34.8161H20.1735V32.8161ZM6.7975 32.8161C5.64097 32.8161 4.77631 32.4607 4.1126 31.797L2.69839 33.2112C3.78402 34.2969 5.18069 34.8161 6.7975 34.8161V32.8161ZM4.1126 31.797C3.47509 31.1595 3.1255 30.3085 3.1255 29.1441H1.1255C1.1255 30.7531 1.62923 32.1421 2.69839 33.2112L4.1126 31.797ZM3.1255 29.1441V8.12012H1.1255V29.1441H3.1255ZM2.1255 9.12012H8.5255V7.12012H2.1255V9.12012ZM7.5255 8.12012V28.0561H9.5255V8.12012H7.5255ZM8.5255 29.0561H18.4455V27.0561H8.5255V29.0561ZM19.4455 28.0561V8.12012H17.4455V28.0561H19.4455ZM18.4455 9.12012H24.8455V7.12012H18.4455V9.12012ZM23.8455 8.12012V29.1441H25.8455V8.12012H23.8455Z" fill="white" mask="url(#path-2-outside-1_10_40)"/>
<path d="M70.691 29.1441C70.691 30.5308 70.2537 31.6508 69.379 32.5041C68.5257 33.3788 67.4057 33.8161 66.019 33.8161H52.003C50.6163 33.8161 49.4857 33.3788 48.611 32.5041C47.7577 31.6508 47.331 30.5308 47.331 29.1441V25.1121H53.731V28.0561H64.291V23.2561H52.003C50.6163 23.2561 49.539 22.8828 48.771 22.1361C48.0243 21.3681 47.651 20.2908 47.651 18.9041V12.7921C47.651 11.4055 48.0777 10.2855 48.931 9.43212C49.8057 8.55745 50.9363 8.12012 52.323 8.12012H65.859C67.2457 8.12012 68.3657 8.55745 69.219 9.43212C70.0937 10.2855 70.531 11.4055 70.531 12.7921V16.3121H64.131V13.8801H54.051V17.9761H66.339C67.7257 17.9761 68.7923 18.3601 69.539 19.1281C70.307 19.8748 70.691 20.9415 70.691 22.3281V29.1441ZM80.993 33.8161H74.273V8.12012H80.993V33.8161ZM107.91 33.8161H100.39L94.7265 23.2881C94.4278 22.7335 94.1505 22.2321 93.8945 21.7841C93.6598 21.3148 93.4252 20.8561 93.1905 20.4081C92.9558 19.9601 92.7105 19.5121 92.4545 19.0641C92.2198 18.6161 91.9638 18.1148 91.6865 17.5601V33.8161H84.7105V8.12012H92.2305L99.3665 21.2081C99.7718 21.9121 100.124 22.5415 100.422 23.0961C100.742 23.6508 101.105 24.3015 101.51 25.0481V8.12012H107.91V33.8161ZM134.785 29.1441C134.785 30.5308 134.347 31.6508 133.473 32.5041C132.619 33.3788 131.499 33.8161 130.113 33.8161H116.097C114.71 33.8161 113.579 33.3788 112.705 32.5041C111.851 31.6508 111.425 30.5308 111.425 29.1441V25.1121H117.825V28.0561H128.385V23.2561H116.097C114.71 23.2561 113.633 22.8828 112.865 22.1361C112.118 21.3681 111.745 20.2908 111.745 18.9041V12.7921C111.745 11.4055 112.171 10.2855 113.025 9.43212C113.899 8.55745 115.03 8.12012 116.417 8.12012H129.953C131.339 8.12012 132.459 8.55745 133.313 9.43212C134.187 10.2855 134.625 11.4055 134.625 12.7921V16.3121H128.225V13.8801H118.145V17.9761H130.433C131.819 17.9761 132.886 18.3601 133.633 19.1281C134.401 19.8748 134.785 20.9415 134.785 22.3281V29.1441ZM162.922 33.8161H155.914L154.154 28.0561H144.97L143.05 33.8161H136.042L144.586 8.12012H154.986L162.922 33.8161ZM152.554 22.7441L151.178 18.1361C150.943 17.3255 150.698 16.4828 150.442 15.6081C150.207 14.7121 150.005 13.8588 149.834 13.0481C149.642 13.8588 149.407 14.7121 149.13 15.6081C148.853 16.4828 148.586 17.3255 148.33 18.1361L146.762 22.7441H152.554Z" fill="black"/>
<defs>
<linearGradient id="paint0_linear_10_40" x1="36.6669" y1="3.41675" x2="36.6669" y2="17.9167" gradientUnits="userSpaceOnUse">
<stop stop-color="#981478"/>
<stop offset="1" stop-color="#6E1E6F"/>
</linearGradient>
<linearGradient id="paint1_linear_10_40" x1="0.333496" y1="22.5001" x2="27.3335" y2="22.5001" gradientUnits="userSpaceOnUse">
<stop stop-color="#EC008C"/>
<stop offset="0.474" stop-color="#EC008C"/>
<stop offset="0.879" stop-color="#981478"/>
</linearGradient>
</defs>
</svg>
